<?xml version="1.0" standalone="no"?>
<!DOCTYPE svg PUBLIC "-//W3C//DTD SVG 20010904//EN"
 "http://www.w3.org/TR/2001/REC-SVG-20010904/DTD/svg10.dtd">
<svg version="1.0" xmlns="http://www.w3.org/2000/svg"
 width="512.000000pt" height="512.000000pt" viewBox="0 0 512.000000 512.000000"
 preserveAspectRatio="xMidYMid meet">
<metadata>
Created by potrace 1.14, written by Peter Selinger 2001-2017
</metadata>
<g transform="translate(0.000000,512.000000) scale(0.100000,-0.100000)"
fill="#000000" stroke="none">
<path d="M209 5105 c-94 -34 -155 -94 -190 -184 -18 -50 -19 -109 -19 -2427 0
-2633 -6 -2417 64 -2467 l31 -22 2405 0 2405 0 50 27 c60 31 104 77 136 138
l24 45 0 570 0 570 -29 58 c-34 66 -79 110 -145 141 -45 20 -60 21 -625 24
l-580 3 105 60 c57 34 253 146 434 251 182 104 357 208 391 230 104 69 152
168 141 288 -6 70 4 52 -350 660 -27 47 -59 101 -70 120 -145 257 -179 294
-299 325 -71 19 -133 10 -218 -33 -67 -34 -282 -156 -320 -182 -8 -6 -22 -13
-30 -17 -8 -3 -39 -21 -68 -40 -29 -18 -54 -33 -57 -33 -2 0 -68 -37 -147 -83
-259 -150 -290 -167 -284 -152 6 15 100 180 351 615 175 302 192 335 203 386
18 85 -19 202 -84 266 -27 27 -301 193 -514 311 -25 14 -128 73 -229 131 -101
59 -206 114 -233 123 -94 30 -214 2 -289 -68 -37 -35 -53 -60 -184 -289 -43
-74 -85 -148 -95 -165 -9 -16 -68 -118 -130 -225 -62 -107 -127 -219 -144
-248 l-31 -53 -5 573 -5 573 -27 50 c-31 60 -77 104 -138 136 l-45 24 -560 2
c-444 1 -567 -1 -596 -12z"/>
</g>
</svg>
